<mxfile host="65bd71144e">
    <diagram id="hiwLlRVZviJGpqHuwzEi" name="Page-1">
        <mxGraphModel dx="654" dy="582" grid="1" gridSize="10" guides="1" tooltips="1" connect="1" arrows="1" fold="1" page="1" pageScale="1" pageWidth="850" pageHeight="1100" math="0" shadow="0">
            <root>
                <mxCell id="0"/>
                <mxCell id="1" parent="0"/>
                <mxCell id="2" value="START" style="ellipse;whiteSpace=wrap;html=1;gradientColor=none;shadow=0;fontFamily=Times New Roman;fontStyle=0;verticalAlign=middle;labelPosition=center;verticalLabelPosition=middle;align=center;labelBackgroundColor=none;labelBorderColor=none;spacingTop=0;spacing=2;spacingLeft=0;spacingBottom=1;spacingRight=0;" vertex="1" parent="1">
                    <mxGeometry x="270" width="90" height="70" as="geometry"/>
                </mxCell>
                <mxCell id="4" value="EXIT" style="ellipse;whiteSpace=wrap;html=1;gradientColor=none;shadow=0;fontFamily=Times New Roman;fontStyle=0;verticalAlign=middle;labelPosition=center;verticalLabelPosition=middle;align=center;labelBackgroundColor=none;labelBorderColor=none;spacingTop=0;spacing=2;spacingLeft=0;spacingBottom=1;spacingRight=0;" vertex="1" parent="1">
                    <mxGeometry x="315" y="620" width="90" height="70" as="geometry"/>
                </mxCell>
                <mxCell id="5" value="Read N&lt;span style=&quot;white-space: pre;&quot;&gt;&#9;&lt;/span&gt;" style="shape=parallelogram;perimeter=parallelogramPerimeter;whiteSpace=wrap;html=1;fixedSize=1;shadow=0;labelBackgroundColor=none;labelBorderColor=none;sketch=0;fontFamily=Times New Roman;gradientColor=none;" vertex="1" parent="1">
                    <mxGeometry x="150" y="90" width="110" height="50" as="geometry"/>
                </mxCell>
                <mxCell id="6" value="Printed &quot;Hii&quot;" style="shape=parallelogram;perimeter=parallelogramPerimeter;whiteSpace=wrap;html=1;fixedSize=1;shadow=0;labelBackgroundColor=none;labelBorderColor=none;sketch=0;fontFamily=Times New Roman;gradientColor=none;" vertex="1" parent="1">
                    <mxGeometry x="400" y="90" width="110" height="50" as="geometry"/>
                </mxCell>
                <mxCell id="7" value="Name = &quot;Gautam&quot;&lt;br&gt;a=10&lt;br&gt;b=&quot;30&quot;" style="rounded=0;whiteSpace=wrap;html=1;shadow=0;labelBackgroundColor=none;labelBorderColor=none;sketch=0;fontFamily=Times New Roman;gradientColor=none;" vertex="1" parent="1">
                    <mxGeometry x="260" y="190" width="160" height="60" as="geometry"/>
                </mxCell>
                <mxCell id="10" value="" style="edgeStyle=none;html=1;fontFamily=Times New Roman;entryX=0;entryY=0.5;entryDx=0;entryDy=0;" edge="1" parent="1" source="8" target="2">
                    <mxGeometry relative="1" as="geometry">
                        <mxPoint x="180" y="35" as="targetPoint"/>
                    </mxGeometry>
                </mxCell>
                <mxCell id="8" value="START" style="text;html=1;strokeColor=none;fillColor=none;align=center;verticalAlign=middle;whiteSpace=wrap;rounded=0;shadow=0;labelBackgroundColor=none;labelBorderColor=default;sketch=0;fontFamily=Times New Roman;" vertex="1" parent="1">
                    <mxGeometry x="30" y="20" width="70" height="30" as="geometry"/>
                </mxCell>
                <mxCell id="13" value="" style="edgeStyle=none;html=1;fontFamily=Times New Roman;entryX=0;entryY=0.25;entryDx=0;entryDy=0;" edge="1" parent="1" source="12" target="5">
                    <mxGeometry relative="1" as="geometry"/>
                </mxCell>
                <mxCell id="12" value="INPUT/OUTPUT" style="text;html=1;strokeColor=none;fillColor=none;align=center;verticalAlign=middle;whiteSpace=wrap;rounded=0;shadow=0;labelBackgroundColor=none;labelBorderColor=default;sketch=0;fontFamily=Times New Roman;" vertex="1" parent="1">
                    <mxGeometry x="20" y="90" width="60" height="30" as="geometry"/>
                </mxCell>
                <mxCell id="15" style="edgeStyle=none;html=1;entryX=0;entryY=0.5;entryDx=0;entryDy=0;fontFamily=Times New Roman;" edge="1" parent="1" source="14" target="7">
                    <mxGeometry relative="1" as="geometry"/>
                </mxCell>
                <mxCell id="14" value="PROCESS" style="text;html=1;strokeColor=none;fillColor=none;align=center;verticalAlign=middle;whiteSpace=wrap;rounded=0;shadow=0;labelBackgroundColor=none;labelBorderColor=default;sketch=0;fontFamily=Times New Roman;" vertex="1" parent="1">
                    <mxGeometry x="10" y="200" width="60" height="30" as="geometry"/>
                </mxCell>
                <mxCell id="18" value="" style="edgeStyle=none;html=1;fontFamily=Times New Roman;" edge="1" parent="1" source="16" target="17">
                    <mxGeometry relative="1" as="geometry"/>
                </mxCell>
                <mxCell id="16" value="DECISION&lt;br&gt;" style="text;html=1;strokeColor=none;fillColor=none;align=center;verticalAlign=middle;whiteSpace=wrap;rounded=0;shadow=0;labelBackgroundColor=none;labelBorderColor=default;sketch=0;fontFamily=Times New Roman;" vertex="1" parent="1">
                    <mxGeometry x="10" y="360" width="60" height="30" as="geometry"/>
                </mxCell>
                <mxCell id="21" value="" style="edgeStyle=none;html=1;fontFamily=Times New Roman;" edge="1" parent="1" source="17" target="20">
                    <mxGeometry relative="1" as="geometry"/>
                </mxCell>
                <mxCell id="26" style="edgeStyle=none;html=1;exitX=0.5;exitY=1;exitDx=0;exitDy=0;entryX=0.4;entryY=-0.041;entryDx=0;entryDy=0;entryPerimeter=0;fontFamily=Times New Roman;" edge="1" parent="1" source="17" target="25">
                    <mxGeometry relative="1" as="geometry"/>
                </mxCell>
                <mxCell id="17" value="IS&amp;nbsp;&lt;br&gt;marks &amp;gt;33" style="rhombus;whiteSpace=wrap;html=1;shadow=0;labelBackgroundColor=none;labelBorderColor=none;sketch=0;fontFamily=Times New Roman;gradientColor=none;" vertex="1" parent="1">
                    <mxGeometry x="300" y="327.5" width="100" height="95" as="geometry"/>
                </mxCell>
                <mxCell id="20" value="Print&quot;Pass&quot;" style="whiteSpace=wrap;html=1;fontFamily=Times New Roman;shadow=1;labelBackgroundColor=none;labelBorderColor=none;sketch=1;gradientColor=none;curveFitting=1;jiggle=2;rounded=1;glass=0;" vertex="1" parent="1">
                    <mxGeometry x="490" y="347.5" width="100" height="55" as="geometry"/>
                </mxCell>
                <mxCell id="22" value="Yes" style="text;html=1;strokeColor=none;fillColor=none;align=center;verticalAlign=middle;whiteSpace=wrap;rounded=0;shadow=1;glass=1;labelBackgroundColor=none;labelBorderColor=none;sketch=1;fontFamily=Times New Roman;textOpacity=70;" vertex="1" parent="1">
                    <mxGeometry x="410" y="347.5" width="60" height="30" as="geometry"/>
                </mxCell>
                <mxCell id="28" style="edgeStyle=none;html=1;entryX=0.5;entryY=0;entryDx=0;entryDy=0;fontFamily=Times New Roman;" edge="1" parent="1" source="25" target="4">
                    <mxGeometry relative="1" as="geometry"/>
                </mxCell>
                <mxCell id="25" value="Print&quot;Fail&quot;" style="whiteSpace=wrap;html=1;fontFamily=Times New Roman;shadow=1;labelBackgroundColor=none;labelBorderColor=none;sketch=1;gradientColor=none;curveFitting=1;jiggle=2;rounded=1;glass=0;" vertex="1" parent="1">
                    <mxGeometry x="310" y="490" width="100" height="55" as="geometry"/>
                </mxCell>
                <mxCell id="27" value="No" style="text;html=1;strokeColor=none;fillColor=none;align=center;verticalAlign=middle;whiteSpace=wrap;rounded=0;shadow=1;glass=1;labelBackgroundColor=none;labelBorderColor=none;sketch=1;fontFamily=Times New Roman;" vertex="1" parent="1">
                    <mxGeometry x="310" y="440" width="40" height="20" as="geometry"/>
                </mxCell>
            </root>
        </mxGraphModel>
    </diagram>
</mxfile>